# xmcd
#
# Track frame offsets:
#	150
#	19237
#	46353
#	63998
#	91588
#	115756
#	138450
#	157713
#	180031
#
# Disc length: 2704 seconds
#
# Revision: 0
# Processed by: cddbd v1.5.2PL0 Copyright (c) Steve Scherf et al.
# Submitted via: EZCDAudioConverter 2.1.7.1
#
DISCID=5f0a8e09
DTITLE=Randy - Uoc Gi Cho Que Huong
DYEAR=2012
DGENRE=Vietnamese
TTITLE0=Ai Cho Toi Tinh Yeu
TTITLE1=Ai Kho Vi Ai
TTITLE2=Khan Gia Xa Gan
TTITLE3=Me
TTITLE4=Nuoc Mat Me Hien
TTITLE5=On Nghia Sinh Thanh
TTITLE6=Uoc Gi Cho Que Huong
TTITLE7=Vet Thuong Vo Hinh
TTITLE8=Xuan Nay Ben Me
EXTD=
EXTT0=
EXTT1=
EXTT2=
EXTT3=
EXTT4=
EXTT5=
EXTT6=
EXTT7=
EXTT8=
PLAYORDER=
